<?xml version="1.0" encoding="UTF-8"?>
<svg version="1.1" xmlns="http://www.w3.org/2000/svg" width="820" height="1552">
<path d="M0 0 C253.77 0 507.54 0 769 0 C769.33 12.54 769.66 25.08 770 38 C773.96 42.455 773.96 42.455 778 47 C779.79367819 49.94472923 781.40978984 52.74882179 782.9375 55.8125 C783.32228516 56.54919922 783.70707031 57.28589844 784.10351562 58.04492188 C788.37753127 66.36009817 789.92095339 75.78445208 787.47119141 84.98632812 C783.824374 95.51508572 779.617715 100.98892812 770 107 C769.67 217.22 769.34 327.44 769 441 C515.23 441 261.46 441 0 441 C0 331.44 0 221.88 0 109 C-1.32 108.34 -2.64 107.68 -4 107 C-12.69297068 99.14971525 -20.63788295 88.89390641 -22.66796875 77.12890625 C-22.99627525 68.45984009 -20.95821483 61.64055407 -17 54 C-16.55527344 52.94425781 -16.55527344 52.94425781 -16.1015625 51.8671875 C-14.67976267 49.45718638 -13.07628438 48.35148745 -10.75 46.8125 C-10.00234375 46.30332031 -9.2546875 45.79414063 -8.484375 45.26953125 C-6 44 -6 44 0 43 C0 28.81 0 14.62 0 0 Z M11 10 C11 148.6 11 287.2 11 430 C257.51 430 504.02 430 758 430 C758 291.4 758 152.8 758 10 C511.49 10 264.98 10 11 10 Z M-4.3125 55.3125 C-8.91821895 59.91821895 -12.11732653 66.42942959 -12.6875 73 C-12.26306283 79.61300494 -7.56677368 85.64983948 -4 91 C-3.34 91 -2.68 91 -2 91 C-1.67 91.99 -1.34 92.98 -1 94 C-0.67 94 -0.34 94 0 94 C0 80.8 0 67.6 0 54 C-2.15327235 53.83546483 -2.15327235 53.83546483 -4.3125 55.3125 Z M769 55 C769 67.87 769 80.74 769 94 C774.3414966 88.6585034 778.09694519 83.75536189 778.4375 76 C777.97476524 68.226056 774.65993722 61.15178763 770 55 C769.67 55 769.34 55 769 55 Z " fill="#FFFFFFB3" transform="translate(27,455)"/>
<path d="M0 0 C3.10061515 3.22291319 3.76477407 6.42051124 4.625 10.75 C4.86476563 11.92046875 5.10453125 13.0909375 5.3515625 14.296875 C6.03106059 18.17738216 6.51135897 22.09087179 7 26 C13.93 26 20.86 26 28 26 C26.453125 25.071875 24.90625 24.14375 23.3125 23.1875 C21.54166667 22.125 19.77083333 21.0625 18 20 C17.08605469 19.50113281 16.17210937 19.00226562 15.23046875 18.48828125 C13 17 13 17 12 14 C12 11 12 11 13 9.0625 C16.15940351 7.38406688 18.72498612 8.01503342 22 9 C30.13689475 12.05816178 39.23545517 17.60262941 43.30151367 25.54101562 C45.43900414 28.63556845 46.67184802 28.88473724 50.3046875 29.625 C51.3570459 29.85380859 52.4094043 30.08261719 53.49365234 30.31835938 C54.60949707 30.54330078 55.7253418 30.76824219 56.875 31 C76.98522764 35.44166277 98.6882153 43.18989645 112 60 C112 60.66 112 61.32 112 62 C112.66 62 113.32 62 114 62 C133.21554522 83.24753391 136.43849963 113.78365347 136.375 141.125 C136.37412384 142.04830109 136.37324768 142.97160217 136.37234497 143.92288208 C136.26380966 178.74093409 130.27146744 215.47214324 113.0625 246.18359375 C111.21864227 249.50998934 109.64473026 252.91606261 108.09741211 256.38842773 C102.58996472 268.70171395 95.27989975 278.90731411 86.08203125 288.765625 C84.15266256 290.83616701 82.32371759 292.96169362 80.5 295.125 C61.99046249 316.11649823 34.66145114 326.64200888 7.31542969 328.85693359 C0.64860489 329.2688652 -5.30975099 328.83628113 -12 328 C-12 343.18 -12 358.36 -12 374 C-10.02 374.66 -8.04 375.32 -6 376 C-4.05785562 376.97132383 -2.14026277 377.99284077 -0.24609375 379.0546875 C0.84461426 379.66320557 1.93532227 380.27172363 3.05908203 380.89868164 C4.22698041 381.55729062 5.39478415 382.21606745 6.5625 382.875 C7.77958752 383.55691211 8.9968752 384.23846709 10.21435547 384.91967773 C18.21127632 389.40086846 26.17931424 393.93291769 34.12719727 398.50048828 C39.9610247 401.84998443 45.82515973 405.14155671 51.70263672 408.41381836 C61.26911079 413.74103971 70.78950671 419.07108965 80 425 C80.90234375 425.57492187 81.8046875 426.14984375 82.734375 426.7421875 C88.85862069 430.71724138 88.85862069 430.71724138 90 433 C90.3125 435.9375 90.3125 435.9375 90 439 C88.375 440.9375 88.375 440.9375 86 442 C81.67505707 441.59114663 78.54355761 440.47280133 74.7890625 438.33203125 C73.80397705 437.77563965 72.8188916 437.21924805 71.80395508 436.64599609 C70.7548999 436.04094238 69.70584473 435.43588867 68.625 434.8125 C66.97310669 433.87398193 66.97310669 433.87398193 65.2878418 432.91650391 C56.7597976 428.0563638 48.29090496 423.09445372 39.82836914 418.12133789 C33.13876295 414.20416943 26.38247004 410.43498862 19.5625 406.75 C12.70276951 403.03824068 5.87385349 399.28551046 -0.875 395.375 C-1.96445923 394.75383301 -1.96445923 394.75383301 -3.07592773 394.12011719 C-4.75254723 393.13793466 -6.38256239 392.07686165 -8 391 C-8 390.34 -8 389.68 -8 389 C-9.32 388.67 -10.64 388.34 -12 388 C-11.99476318 389.03817871 -11.98952637 390.07635742 -11.98413086 391.14599609 C-11.96586947 395.04116943 -11.95449163 398.93633907 -11.94506836 402.83154297 C-11.94007604 404.50928384 -11.93327985 406.18702045 -11.92456055 407.86474609 C-11.8015672 432.15954963 -11.8015672 432.15954963 -14.75 436.6875 C-17 438 -17 438 -19.5625 437.9375 C-22.186896 436.92811692 -23.26101758 436.17691776 -25 434 C-25.39872742 431.93086243 -25.39872742 431.93086243 -25.43237305 429.52856445 C-25.45216721 428.62785721 -25.47196136 427.72714996 -25.49235535 426.79914856 C-25.50194023 425.34589424 -25.50194023 425.34589424 -25.51171875 423.86328125 C-25.52966995 422.86870407 -25.54762115 421.87412689 -25.56611633 420.84941101 C-25.62033016 417.6704839 -25.65415083 414.49170787 -25.6875 411.3125 C-25.72066326 409.15818205 -25.75515199 407.00388406 -25.79101562 404.84960938 C-25.87606272 399.56654173 -25.94436558 394.28345479 -26 389 C-26.61593018 389.37060547 -27.23186035 389.74121094 -27.86645508 390.12304688 C-42.24894685 398.77345326 -56.65893824 407.37483775 -71.10546875 415.91796875 C-75.26066295 418.37555958 -79.41208159 420.83920512 -83.55822754 423.31202698 C-86.01051784 424.77450101 -88.46400547 426.23496013 -90.9175415 427.69534302 C-92.63611103 428.71937909 -94.35299447 429.74624316 -96.06982422 430.77319336 C-113.17518318 440.94822599 -113.17518318 440.94822599 -119 440 C-120.875 438.875 -120.875 438.875 -122 437 C-122.4375 434.0625 -122.4375 434.0625 -122 431 C-119.12229597 427.58081084 -115.81675638 425.53062573 -111.96875 423.3125 C-111.0937384 422.80420654 -111.0937384 422.80420654 -110.2010498 422.28564453 C-108.3038458 421.18489226 -106.40191452 420.09258919 -104.5 419 C-102.50647926 417.84533943 -100.51430908 416.68837291 -98.5222168 415.53125 C-97.19595773 414.76102769 -95.86929785 413.99149513 -94.54223633 413.22265625 C-89.32945782 410.2008317 -84.15557973 407.11844064 -79 404 C-71.35307109 399.39045944 -63.67396031 394.83695802 -55.97631836 390.31274414 C-54.72648292 389.57789384 -53.47711268 388.8422516 -52.22827148 388.10571289 C-28.30167186 374 -28.30167186 374 -25 374 C-25 358.49 -25 342.98 -25 327 C-30.94 325.68 -36.88 324.36 -43 323 C-48.31750494 321.37858836 -53.57288517 319.71410974 -58.8125 317.875 C-59.49567291 317.63800385 -60.17884583 317.40100769 -60.88272095 317.15682983 C-77.89086757 311.23420255 -93.95675175 303.97476838 -109 294 C-110.46566406 293.04867187 -110.46566406 293.04867187 -111.9609375 292.078125 C-114.99801424 290.08529249 -118.00391096 288.05392268 -121 286 C-121.56895996 285.61054199 -122.13791992 285.22108398 -122.72412109 284.81982422 C-130.66083016 279.35886543 -137.97567197 273.61743098 -145 267 C-146.06098075 266.02698664 -147.12357299 265.05572845 -148.1875 264.0859375 C-151.48046312 261.08071367 -154.74705259 258.04845845 -158 255 C-159.29550781 253.78763672 -159.29550781 253.78763672 -160.6171875 252.55078125 C-165.48420162 247.85583328 -169.77259479 242.98652025 -173 237 C-173 236.34 -173 235.68 -173 235 C-173.66 235 -174.32 235 -175 235 C-176.51080039 233.03072861 -177.85970939 231.08950557 -179.1875 229 C-179.58533691 228.37424072 -179.98317383 227.74848145 -180.39306641 227.10375977 C-187.15468764 216.1604316 -191.79432943 204.70466246 -194 192 C-194.13019531 191.29875 -194.26039063 190.5975 -194.39453125 189.875 C-198.27913055 165.01356449 -189.94160448 137.33478381 -175.4140625 117.01953125 C-173.88133221 114.83052141 -172.57480485 112.57025877 -171.25 110.25 C-165.90632692 101.23606725 -159.12607452 92.66053011 -152 85 C-151.34 85 -150.68 85 -150 85 C-149.80792969 84.32582031 -149.61585938 83.65164062 -149.41796875 82.95703125 C-147.43219444 78.81589861 -144.49114807 75.96029064 -141.3125 72.6875 C-140.04190764 71.35778395 -138.77236533 70.0270637 -137.50390625 68.6953125 C-136.89691895 68.06012695 -136.28993164 67.42494141 -135.66455078 66.77050781 C-133.07476019 64.01586402 -130.63767858 61.14006858 -128.234375 58.22265625 C-127 57 -127 57 -125 57 C-125 56.34 -125 55.68 -125 55 C-124.34 55 -123.68 55 -123 55 C-122.74855225 54.42330566 -122.49710449 53.84661133 -122.23803711 53.25244141 C-120.84008347 50.70905346 -119.24844666 49.00559634 -117.19140625 46.9609375 C-116.07088867 45.84332031 -116.07088867 45.84332031 -114.92773438 44.703125 C-114.14720703 43.93484375 -113.36667969 43.1665625 -112.5625 42.375 C-111.39750977 41.21097656 -111.39750977 41.21097656 -110.20898438 40.0234375 C-102.12286377 32 -102.12286377 32 -97 32 C-97.04125 31.0925 -97.0825 30.185 -97.125 29.25 C-96 26 -96 26 -93.8828125 24.74609375 C-79.44252816 18.93998536 -66.29856122 20.01564233 -52.08677673 25.77539062 C-46.22080256 27.96871556 -41.35770013 28.28769305 -35.15234375 27.85546875 C-34.25504044 27.80683182 -33.35773712 27.75819489 -32.4332428 27.70808411 C-29.6001156 27.55081087 -26.76912942 27.36958672 -23.9375 27.1875 C-22.00334654 27.07587995 -20.06910127 26.96583886 -18.13476562 26.85742188 C-13.42191958 26.58984662 -8.71083736 26.30079988 -4 26 C-4.34347712 23.40885682 -4.72293666 20.83214013 -5.125 18.25 C-5.2178125 17.52039063 -5.310625 16.79078125 -5.40625 16.0390625 C-6.09291334 11.84278654 -6.55483443 10.38733621 -9.88671875 7.48828125 C-13.94595954 5.54779099 -16.81622584 5.72262127 -21 7 C-23.81707419 8.22620868 -26.56049802 9.52911408 -29.2890625 10.94140625 C-32.3988314 12.15573964 -34.6881684 12.26476073 -38 12 C-39.9375 10.875 -39.9375 10.875 -41 9 C-41.01953125 6.12109375 -41.01953125 6.12109375 -40 3 C-37.50618117 1.37901776 -35.45662904 0.29105026 -32.75 -0.8125 C-32.08097656 -1.11091797 -31.41195312 -1.40933594 -30.72265625 -1.71679688 C-20.01876451 -6.37477727 -9.84511963 -6.86448708 0 0 Z M-22.5 39.4375 C-23.64734619 39.49635376 -23.64734619 39.49635376 -24.81787109 39.55639648 C-28.62548186 39.77521021 -32.28482444 40.12280577 -36 41 C-36 43.64 -36 46.28 -36 49 C-41.47112462 49.36474164 -41.47112462 49.36474164 -43.8125 47.75 C-45.1134395 45.832826 -45.49524397 44.24130199 -46 42 C-77.40833283 40.41366107 -77.40833283 40.41366107 -104.98168945 51.40209961 C-107.15789003 53.90699871 -109.09556497 56.4515132 -110.85766602 59.26318359 C-112.56459058 61.85840936 -114.75795856 63.86626974 -117 66 C-118.36600169 67.48923025 -119.72009196 68.98946764 -121.0625 70.5 C-124.15630296 73.96444159 -127.28566683 77.38870795 -130.45654297 80.78222656 C-136.24195957 86.98677015 -141.74286371 93.33638679 -147 100 C-147.47518066 100.58668457 -147.95036133 101.17336914 -148.43994141 101.77783203 C-160.55436815 116.74990343 -172.38477952 133.377044 -178 152 C-178.30164063 152.98355469 -178.60328125 153.96710938 -178.9140625 154.98046875 C-184.9281706 175.80502062 -182.60395011 196.22354704 -172.26953125 215.14453125 C-166.89906652 224.49050426 -160.42647372 232.89446523 -153.078125 240.76953125 C-151.16973109 242.81782622 -149.36375274 244.92035597 -147.5625 247.0625 C-122.91934294 275.11434772 -86.80940257 294.29978782 -52.0625 306.375 C-50.86657227 306.79201172 -49.67064453 307.20902344 -48.43847656 307.63867188 C-17.89432316 318.00322545 13.691371 319.85073378 43.46875 306.4375 C78.77001528 288.61550199 100.30961357 250.79384464 112.52734375 214.59765625 C125.66961074 173.27060378 131.50156879 122.35936179 112 82 C109.91426869 78.43217256 107.59584844 75.21153045 105 72 C104.41734375 71.24332031 103.8346875 70.48664063 103.234375 69.70703125 C92.55931297 56.67717612 74.5863069 46.87386506 58 44 C56.3338003 43.96054959 54.66590468 43.94960787 53 44 C52.67 46.31 52.34 48.62 52 51 C49.36 51 46.72 51 44 51 C43.34 48.69 42.68 46.38 42 44 C41.34 44 40.68 44 40 44 C39.67 43.01 39.34 42.02 39 41 C35.46498542 40.21226083 32.09750212 39.82504198 28.48046875 39.68359375 C27.45888672 39.64169922 26.43730469 39.59980469 25.38476562 39.55664062 C24.32966797 39.51732422 23.27457031 39.47800781 22.1875 39.4375 C20.57584961 39.37272461 20.57584961 39.37272461 18.93164062 39.30664062 C16.28787918 39.20089017 13.6440289 39.09879767 11 39 C10.67 40.98 10.34 42.96 10 45 C4.50581395 45.36627907 4.50581395 45.36627907 2.1875 43.6875 C1 42 1 42 0 39 C-7.52064132 38.88041383 -14.99108128 39.03362164 -22.5 39.4375 Z " fill="#FFFFFFB3" transform="translate(415,10)"/>
<path d="M0 0 C2.4375 0.375 2.4375 0.375 5.4375 2.375 C7.25282011 7.7044692 7.53456661 13.41460575 7.4296875 19.00390625 C7.37749904 27.27372555 7.81264433 35.50544719 8.23513794 43.76168823 C8.47400677 48.43841992 8.70165973 53.11569788 8.9296875 57.79296875 C8.9747493 58.71378738 9.0198111 59.63460602 9.0662384 60.58332825 C9.42590815 67.99154388 9.73557531 75.40020539 10 82.8125 C10.03802734 83.87654053 10.07605469 84.94058105 10.11523438 86.03686523 C10.26100381 90.18266319 10.40222456 94.32860513 10.54199219 98.47460938 C11.23887797 118.99757607 12.25000953 139.5008536 13.31469727 160.00750732 C13.43374775 162.30266103 13.55185106 164.59786213 13.66992188 166.89306641 C14.43412114 181.6620739 15.28660733 196.42607469 16.13525391 211.19042969 C16.85430863 223.71233051 17.55887626 236.23324045 18.11437988 248.76364136 C18.33721303 253.69919451 18.6865126 258.59968611 19.1875 263.515625 C19.59385947 268.16336148 19.81412961 272.82182012 20.04492188 277.48120117 C20.36851678 283.79201146 20.89692393 290.07951957 21.4375 296.375 C21.57006175 297.99991457 21.70162391 299.62491111 21.83203125 301.25 C22.64341587 311.23544011 23.50757926 321.21490893 24.421875 331.19140625 C24.50978806 332.15162689 24.59770111 333.11184753 24.6882782 334.10116577 C25.13214544 338.94336753 25.57865538 343.78530909 26.02856445 348.62695312 C26.76577841 356.61095699 27.47935903 364.58715169 27.98046875 372.58984375 C28.33594534 378.22800151 28.91655095 383.78063596 29.6875 389.375 C31.61675749 404.04283003 33.10226158 418.7593227 34.63574219 433.47265625 C35.78400773 444.45822969 37.0188509 455.42059734 38.4375 466.375 C38.62461157 467.84808025 38.81119569 469.32122757 38.99731445 470.79443359 C39.59836296 475.55097079 40.20448071 480.30684919 40.8125 485.0625 C40.97440826 486.32950241 40.97440826 486.32950241 41.1395874 487.62210083 C42.70716482 499.87144248 44.34454747 512.10844833 46.0559082 524.33862305 C47.23876394 532.82589918 48.3201635 541.3224664 49.36157227 549.828125 C50.27239794 557.20936161 51.30485262 564.56830743 52.38305664 571.92675781 C53.16594888 577.31783933 53.84006393 582.71050077 54.4375 588.125 C55.12425804 594.30294291 56.11525383 600.37387679 57.25732422 606.48242188 C58.62989643 614.0358962 59.53067332 621.64435153 60.43530273 629.26586914 C60.55204346 630.24547607 60.66878418 631.22508301 60.7890625 632.234375 C60.89041504 633.10545898 60.99176758 633.97654297 61.09619141 634.87402344 C61.40913465 637.40186466 61.40913465 637.40186466 61.99365234 639.96972656 C62.74046959 644.01683519 62.36655673 647.81027288 60.25 651.375 C58.4375 652.375 58.4375 652.375 55.4375 652.25 C52.31033846 651.33791122 51.41071879 650.85175876 49.4375 648.375 C48.79321289 646.29150391 48.79321289 646.29150391 48.41015625 643.8515625 C48.2598999 642.92770752 48.10964355 642.00385254 47.95483398 641.05200195 C47.80473877 640.04484131 47.65464355 639.03768066 47.5 638 C47.3337915 636.94578857 47.16758301 635.89157715 46.99633789 634.80541992 C45.13301032 622.80187947 43.51674114 610.76161715 41.89453125 598.72363281 C41.24970756 593.99905922 40.56276052 589.28097326 39.875 584.5625 C38.6856587 576.34747036 37.64326744 568.11859136 36.63256836 559.87988281 C35.63966612 551.84704125 34.55322062 543.82913974 33.4375 535.8125 C32.19719378 526.89982064 30.97394711 517.9858316 29.8125 509.0625 C29.70164062 508.21163818 29.59078125 507.36077637 29.4765625 506.48413086 C28.80466384 501.29341378 28.15362781 496.10027464 27.5078125 490.90625 C26.76562214 484.94121877 25.99902969 478.9796942 25.21875 473.01953125 C23.11124845 456.88817141 21.04458714 440.78270955 19.63916016 424.57226562 C19.29412993 420.81285637 18.86546814 417.06322743 18.4375 413.3125 C17.61654041 406.10931899 16.89051969 398.8996455 16.1875 391.68408203 C15.6909613 386.67117477 15.10403549 381.68130886 14.4375 376.6875 C13.43386159 368.90930236 12.80374528 361.11641239 12.22265625 353.29614258 C11.73203962 346.76480867 11.1412719 340.24870878 10.50390625 333.73046875 C9.39128006 322.26543997 8.49408258 310.78660169 7.63256836 299.30029297 C7.37524751 295.87829154 7.11260005 292.45672606 6.84960938 289.03515625 C6.00007448 277.84862408 5.22528148 266.6705218 4.7822113 255.45959473 C4.57180065 250.33515134 4.17159666 245.25216356 3.68708801 240.14654541 C3.28473984 235.67867768 3.01845697 231.2043795 2.75390625 226.7265625 C2.69411087 225.73176376 2.63431549 224.73696503 2.57270813 223.71202087 C2.37937623 220.47481925 2.18932527 217.23743828 2 214 C1.93435852 212.8858371 1.86871704 211.77167419 1.80108643 210.62374878 C0.59338348 190.04493805 -0.37913108 169.46034772 -1.23762512 148.86436462 C-1.49016762 142.87667766 -1.78035759 136.89144771 -2.0859375 130.90625 C-2.46994521 123.37663545 -2.79941683 115.84744125 -3.0625 108.3125 C-3.10310547 107.1889209 -3.14371094 106.0653418 -3.18554688 104.90771484 C-3.31241612 101.39685239 -3.43761477 97.88593354 -3.5625 94.375 C-4.22624561 75.62142454 -4.22624561 75.62142454 -5.0625 56.875 C-5.62802806 45.38005192 -6.09645186 33.88246046 -6.46289062 22.37939453 C-6.52477231 20.51293361 -6.59265945 18.64664923 -6.66992188 16.78076172 C-6.7572974 14.66636313 -6.8208058 12.55296116 -6.875 10.4375 C-6.93107422 8.78427734 -6.93107422 8.78427734 -6.98828125 7.09765625 C-6.32762747 2.87310871 -4.24755735 0.62159376 0 0 Z " fill="#FFFFFFB3" transform="translate(402.5625,897.625)"/>
<path d="M0 0 C2.375 0.5625 2.375 0.5625 4.1875 2.0625 C6.92372928 7.8229827 5.14669 15.25758447 4.21679688 21.38208008 C4.09294994 22.2288286 3.96910301 23.07557713 3.84150314 23.9479847 C3.43114098 26.74351798 3.01253359 29.53774816 2.59375 32.33203125 C2.30095793 34.31353669 2.00862941 36.29511067 1.71673584 38.27674866 C0.93742639 43.55614016 0.15063766 48.83439039 -0.63804626 54.11238861 C-1.28668124 58.45827138 -1.931339 62.80474063 -2.5761528 67.15119171 C-6.10408501 90.92409577 -9.66030159 114.6929684 -13.375 138.4375 C-13.61198608 139.95810532 -13.61198608 139.95810532 -13.85375977 141.50942993 C-14.28938634 144.29595678 -14.72947359 147.08172913 -15.171875 149.8671875 C-15.29210022 150.63466812 -15.41232544 151.40214874 -15.53619385 152.19288635 C-16.10019051 155.70033597 -16.74434054 159.15849619 -17.55224609 162.61816406 C-18.94231495 168.72959737 -19.88541507 174.91926055 -20.87868309 181.10469246 C-21.25320151 183.43574004 -21.63119111 185.76620233 -22.01008606 188.09654236 C-22.55676571 191.45929354 -23.10252312 194.82219213 -23.64755249 198.18521118 C-28.31378756 226.95559537 -33.14484847 255.69025985 -38.3125 284.375 C-38.4409304 285.08880577 -38.56936081 285.80261154 -38.70168304 286.53804779 C-39.55168053 291.26165261 -40.40530112 295.98458603 -41.26171875 300.70703125 C-41.4726265 301.87024399 -41.68353424 303.03345673 -41.90083313 304.23191833 C-42.46855658 307.34346545 -43.04378768 310.45344657 -43.625 313.5625 C-43.79673737 314.48831879 -43.96847473 315.41413757 -44.14541626 316.36801147 C-44.8064602 319.81998701 -45.47790076 323.12634689 -46.60229492 326.46020508 C-48.18962545 331.27524663 -49.02981319 336.22616582 -49.98828125 341.19921875 C-50.46096148 343.6092714 -50.93395789 346.01926205 -51.40722656 348.42919922 C-51.65605591 349.70245056 -51.90488525 350.9757019 -52.16125488 352.28753662 C-67.78118569 432.12943033 -67.78118569 432.12943033 -77.96557617 468.78808594 C-80.11958748 476.54365885 -81.97099084 484.3240756 -83.6875 492.1875 C-87.07814703 507.649805 -90.90455985 523.00312513 -94.7457695 538.35832977 C-95.24363855 540.34955738 -95.74048821 542.34103684 -96.23709106 544.33258057 C-99.28909387 556.5655253 -102.34854747 568.78742363 -105.79406738 580.9161377 C-107.54181493 587.1262347 -109.09666127 593.37910713 -110.6328125 599.64453125 C-110.88829865 600.68456802 -111.14378479 601.7246048 -111.40701294 602.79615784 C-112.45875101 607.0849239 -113.50785432 611.37427471 -114.54638672 615.66625977 C-115.31776807 618.84838586 -116.09947518 622.02783048 -116.8828125 625.20703125 C-117.11412872 626.17469925 -117.34544495 627.14236725 -117.58377075 628.13935852 C-120.01908481 637.95658481 -120.01908481 637.95658481 -123.625 641.5625 C-127.0625 641.75 -127.0625 641.75 -130.625 641.5625 C-133.02876883 639.15873117 -132.9249015 638.56959105 -132.94677734 635.27636719 C-132.80397227 628.65701901 -131.15845126 622.51320869 -129.4765625 616.140625 C-129.14453088 614.84824787 -128.81354139 613.55560262 -128.48352051 612.26271057 C-127.60222615 608.82246953 -126.706248 605.3862131 -125.80747223 601.9505043 C-124.86607703 598.34008771 -123.93962833 594.7258365 -123.01123047 591.11206055 C-120.0497244 579.60383724 -117.05924593 568.1032519 -113.96875 556.62890625 C-113.22865545 553.87774122 -112.48893447 551.12647686 -111.75 548.375 C-111.57050812 547.70797058 -111.39101624 547.04094116 -111.20608521 546.35369873 C-105.20613487 523.94083003 -100.0904062 501.2898007 -94.77978516 478.70629883 C-94.58671437 477.88538159 -94.39364359 477.06446436 -94.19472218 476.21867085 C-93.27944313 472.32590841 -92.36541506 468.43286044 -91.45396423 464.53919983 C-89.00732311 454.09853531 -86.47966964 443.69157627 -83.66088867 433.34423828 C-81.50738799 425.30262126 -79.74937365 417.20266171 -78.05078125 409.0546875 C-77.72233579 407.49352306 -77.39358229 405.93242341 -77.06454468 404.37138367 C-76.195655 400.24337122 -75.33208822 396.11426334 -74.46987534 391.98485184 C-73.93480261 389.42459334 -73.39806321 386.86468994 -72.86074829 384.30490112 C-68.21601271 362.17625963 -63.62777966 340.03769735 -59.27661133 317.84912109 C-59.11432037 317.02418655 -58.95202942 316.19925201 -58.78482056 315.34931946 C-58.4972915 313.88520352 -58.21156261 312.42073153 -57.92855835 310.95573425 C-57.11491342 306.8062595 -56.18625693 302.69686027 -55.20654297 298.58325195 C-53.37516391 290.70287662 -51.99210135 282.75866807 -50.62109375 274.7890625 C-50.33877902 273.16240319 -50.05624657 271.53578165 -49.77351379 269.90919495 C-49.02015266 265.56732236 -48.27214098 261.22454535 -47.52577209 256.88146591 C-47.06076914 254.17743493 -46.59434114 251.47365312 -46.12756348 248.76992798 C-40.82542322 218.04086088 -35.79005699 187.27476374 -31.01875305 156.45887756 C-30.55871948 153.49268139 -30.09340462 150.52738514 -29.625 147.5625 C-29.38179016 146.01038315 -29.38179016 146.01038315 -29.13366699 144.4269104 C-28.96806274 143.39697968 -28.8024585 142.36704895 -28.63183594 141.3059082 C-28.486474 140.39420364 -28.34111206 139.48249908 -28.19134521 138.54316711 C-27.7707091 136.32936499 -27.24870812 134.13433435 -26.67457581 131.95529175 C-25.29692004 126.54855477 -24.5912492 121.05500222 -23.82495117 115.53442383 C-23.65712631 114.35135147 -23.48930145 113.16827911 -23.31639099 111.94935608 C-22.95362282 109.39165602 -22.59249626 106.83372271 -22.23283958 104.27558327 C-21.66323206 100.22730347 -21.08362951 96.18049388 -20.50178528 92.13395691 C-20.40333586 91.44892949 -20.30488645 90.76390208 -20.20345372 90.05811626 C-20.00228115 88.65835661 -19.80109261 87.25859926 -19.59988844 85.85884416 C-18.24788521 76.44912904 -16.90317123 67.03847242 -15.58276367 57.62426758 C-14.68964435 51.25709221 -13.78169179 44.89222535 -12.856695 38.52960032 C-12.36861287 35.16803465 -11.88820944 31.80576619 -11.42604637 28.44053078 C-10.90763504 24.69143611 -10.36349732 20.94692497 -9.81323242 17.20239258 C-9.6660376 16.09214722 -9.51884277 14.98190186 -9.3671875 13.8380127 C-8.09430088 5.47013051 -8.09430088 5.47013051 -5.15229797 2.37016296 C-2.625 0.5625 -2.625 0.5625 0 0 Z " fill="#FFFFFFB3" transform="translate(374.625,898.4375)"/>
<path d="M0 0 C0.70817871 0.35827881 1.41635742 0.71655762 2.14599609 1.08569336 C7.49809328 3.87763625 11.97056192 6.95710975 16.125 11.375 C16.94871094 12.18710937 16.94871094 12.18710937 17.7890625 13.015625 C22.943619 18.44949245 26.24755797 25.19139121 26.5625 32.75 C25.74145944 47.79358184 18.9112959 60.13484566 8.125 70.375 C-4.65228955 81.25935777 -20.28366362 89.17673468 -37.28125 88.71484375 C-47.82545561 87.71772865 -55.87700007 84.44845014 -62.875 76.375 C-65.79143256 72.40031906 -67.49337482 68.0955527 -68.875 63.375 C-69.58849609 64.06722656 -69.58849609 64.06722656 -70.31640625 64.7734375 C-87.45046315 80.73998039 -109.10485229 93.40724698 -132.96484375 92.6640625 C-139.77683037 92.16047907 -144.94757519 90.30242481 -149.875 85.375 C-156.12769415 76.08528298 -157.08935616 66.45753233 -155.22265625 55.5703125 C-150.92612558 35.25899281 -138.68218422 19.07154862 -121.5 7.625 C-111.5923413 1.56483892 -101.58507383 -2.64407288 -89.875 -1.625 C-85.11881547 0.04847234 -82.70158264 2.23607542 -79.875 6.375 C-79.441875 6.99375 -79.00875 7.6125 -78.5625 8.25 C-77.48629783 11.57644308 -77.74850062 14.14294942 -78.875 17.375 C-84.21960432 27.27140288 -84.21960432 27.27140288 -88.875 30.375 C-91.03125 30.67578125 -91.03125 30.67578125 -93.375 30.6875 C-94.53515625 30.71263672 -94.53515625 30.71263672 -95.71875 30.73828125 C-98.405126 30.28568529 -99.25998078 29.53842138 -100.875 27.375 C-101.52285405 23.70382706 -101.47670665 21.37261218 -99.52734375 18.140625 C-98.03819926 16.15509901 -96.5066403 14.24458784 -94.875 12.375 C-108.32877798 17.7671387 -108.32877798 17.7671387 -119.875 26.375 C-120.63167969 27.09171875 -121.38835937 27.8084375 -122.16796875 28.546875 C-131.65514527 38.27242279 -138.55941556 51.65884998 -138.96484375 65.42578125 C-138.75667461 69.45572231 -138.38839176 72.47656443 -136.375 76 C-131.03222602 78.93852569 -125.7184719 78.8072027 -119.875 77.4375 C-99.15118579 70.99201804 -82.06281692 58.56281692 -66.875 43.375 C-65.885 43.375 -64.895 43.375 -63.875 43.375 C-63.77703125 42.68148437 -63.6790625 41.98796875 -63.578125 41.2734375 C-59.99006582 26.48266022 -45.53822657 10.26394007 -32.875 2.375 C-21.19117952 -4.51641081 -12.26203817 -6.22964915 0 0 Z M-35.53613281 24.72460938 C-43.57546558 34.634509 -52.49693981 47.63664637 -52.34375 60.734375 C-51.48867322 65.55130752 -48.61368103 68.40541907 -44.875 71.375 C-42.26065872 72.97594713 -39.87665427 73.78783911 -36.875 74.375 C-36.15957031 74.52324219 -35.44414062 74.67148437 -34.70703125 74.82421875 C-24.8781843 75.82850629 -14.82755393 69.69553359 -7.42578125 63.7109375 C0.4570321 56.89640669 10.0053245 48.06431265 11.40234375 37.22265625 C11.68516145 30.60472208 10.53296238 25.29097133 6.2734375 20.1328125 C1.48025741 15.37350647 -2.1243423 13.4834176 -8.90625 13.41015625 C-10.875 13.375 -10.875 13.375 -11.875 12.375 C-22.16495044 11.08875619 -29.22560214 17.43942735 -35.53613281 24.72460938 Z " fill="#FFFFFFB3" transform="translate(492.875,565.625)"/>
<path d="M0 0 C2.5 1.625 2.5 1.625 4 4 C4.6348027 7.72946588 4.39222229 9.38325141 2.35546875 12.5859375 C-1.97486575 17.02399176 -8.08126823 17.1019557 -14 18 C-15.26070312 18.19464844 -16.52140625 18.38929688 -17.8203125 18.58984375 C-30.47277457 20.35679849 -43.24562235 20.62175083 -56 21 C-56.09087891 22.58941406 -56.09087891 22.58941406 -56.18359375 24.2109375 C-56.26800127 25.59897221 -56.35264917 26.98699232 -56.4375 28.375 C-56.47681641 29.07367187 -56.51613281 29.77234375 -56.55664062 30.4921875 C-56.88671875 35.7734375 -56.88671875 35.7734375 -58 38 C-54.54145786 37.85888132 -51.08322309 37.71121691 -47.625 37.5625 C-46.17673828 37.50352539 -46.17673828 37.50352539 -44.69921875 37.44335938 C-33.57655897 37.21907004 -33.57655897 37.21907004 -22.8125 34.875 C-19.17538606 33.74345344 -16.66955876 34.08261031 -13 35 C-10.51961093 38.7205836 -10.53662797 40.59796571 -11 45 C-12.62169904 47.60882019 -13.9644523 48.68571865 -16.91123962 49.58004761 C-22.2102439 50.74937818 -27.33741955 51.38848739 -32.75390625 51.6328125 C-33.54022934 51.67437469 -34.32655243 51.71593689 -35.13670349 51.75875854 C-37.61166579 51.88795989 -40.08699662 52.00667041 -42.5625 52.125 C-44.25589519 52.21154159 -45.94925517 52.29877515 -47.64257812 52.38671875 C-51.76135567 52.59913379 -55.88049808 52.80215194 -60 53 C-60.08979126 53.98492432 -60.08979126 53.98492432 -60.18139648 54.98974609 C-60.76148558 61.10510934 -61.71353895 66.99651508 -63 73 C-54.82176741 73.22404493 -46.81672556 72.53631784 -38.6875 71.6875 C-36.84381836 71.51057617 -36.84381836 71.51057617 -34.96289062 71.33007812 C-27.75076309 70.58793308 -20.91062672 69.4137441 -13.91333008 67.49926758 C-9.99582767 66.82791147 -6.57563364 67.05461982 -3.125 69.125 C-1.29900315 72.16832808 -1.57539419 74.54249555 -2 78 C-5.04984968 82.03438853 -7.7936109 82.72270518 -12.6875 83.5 C-13.39302002 83.61472656 -14.09854004 83.72945312 -14.82543945 83.84765625 C-20.19035573 84.67951106 -25.57866155 85.3246101 -30.96875 85.96875 C-31.67997513 86.05386841 -32.39120026 86.13898682 -33.12397766 86.22668457 C-36.71300042 86.65376811 -40.30279514 87.06971715 -43.89526367 87.46679688 C-51.74331989 88.35438362 -59.36270552 89.59094496 -67.05322266 91.42016602 C-71.1694106 92.23010358 -73.96300618 92.14254542 -78 91 C-80.32910906 88.70094178 -80.95661508 87.32382783 -81.39404297 84.05883789 C-81.32400662 75.19541979 -80.05153923 67.07122921 -78.125 58.4375 C-75.53568756 46.35100328 -74.15155758 34.63980672 -73.75830078 22.26538086 C-73.3115483 11.42042578 -73.3115483 11.42042578 -69 7 C-64.28801562 4.08504736 -60.37423912 3.6134939 -54.9609375 3.77734375 C-53.81777573 3.79082603 -53.81777573 3.79082603 -52.65151978 3.80458069 C-50.22553492 3.83442957 -47.80057223 3.88409778 -45.375 3.9375 C-33.66500136 4.17274023 -22.59822579 4.27946774 -11.25 0.875 C-7.15906509 -0.22640555 -4.23345889 -0.41640579 0 0 Z " fill="#FFFFFFB3" transform="translate(715,564)"/>
<path d="M0 0 C1.28127022 -0.0049926 1.28127022 -0.0049926 2.58842468 -0.01008606 C4.40505434 -0.01515874 6.22169335 -0.01749428 8.03833008 -0.01733398 C10.77506729 -0.01949248 13.51138257 -0.03756548 16.24804688 -0.05664062 C32.56375616 -0.11011185 50.03549164 0.0529687 62.51171875 12.16796875 C68.48528058 19.76792018 70.58206493 27.56229789 69.51171875 37.16796875 C66.15111607 48.99388705 54.67889127 57.34856873 44.51171875 63.16796875 C33.72763579 68.92006871 22.55421074 73.84112546 11.03515625 77.91796875 C8.79687758 78.71203657 6.57063546 79.54159983 4.36328125 80.41796875 C-1.17626755 82.60343458 -5.52324934 83.99073177 -11.48828125 83.16796875 C-15.57737988 80.76784564 -17.03158931 78.59125524 -18.48828125 74.16796875 C-19.89268068 62.80441995 -16.99430112 51.28149966 -14.92578125 40.16796875 C-14.41007168 37.38328172 -13.89789182 34.59818143 -13.39698792 31.81079102 C-13.08756425 30.08961754 -12.76973502 28.36992723 -12.44224548 26.65209961 C-11.70980231 22.58553684 -11.09869825 19.17862716 -12.48828125 15.16796875 C-13.14828125 14.50796875 -13.80828125 13.84796875 -14.48828125 13.16796875 C-14.96286622 8.97580151 -14.94442911 6.86739546 -12.61328125 3.29296875 C-8.76921296 -0.55109954 -5.16034375 0.00697041 0 0 Z M5.51171875 17.16796875 C1.72318486 35.57349758 1.72318486 35.57349758 -0.92578125 54.16796875 C-1.01843262 54.95534424 -1.11108398 55.74271973 -1.20654297 56.55395508 C-1.39101501 58.41854489 -1.45209166 60.29462537 -1.48828125 62.16796875 C-0.82828125 62.82796875 -0.16828125 63.48796875 0.51171875 64.16796875 C5.05060391 62.70491442 9.58519822 61.22943228 14.11645508 59.74291992 C15.65443292 59.24024019 17.19347836 58.7408135 18.73364258 58.24487305 C33.11921137 53.60843364 44.1257589 49.34559227 52.51171875 35.98046875 C53.67701822 32.703064 54.01513721 30.61998102 53.51171875 27.16796875 C50.97837547 22.10128219 47.74145397 19.21652793 42.51171875 17.16796875 C35.73360184 15.07874182 28.79566729 14.97480327 21.76171875 14.91796875 C20.95766602 14.90862305 20.15361328 14.89927734 19.32519531 14.88964844 C14.34862234 14.91641528 10.2308327 15.57810683 5.51171875 17.16796875 Z " fill="#FFFFFFB3" transform="translate(552.48828125,568.83203125)"/>
<path d="M0 0 C4.63781003 3.47237068 7.45691376 8.26136629 9.26953125 13.69921875 C10.2623017 21.42864583 8.60004907 27.25051287 4.26953125 33.69921875 C0.17429315 37.69921875 0.17429315 37.69921875 -2.73046875 37.69921875 C-2.96765625 38.3025 -3.20484375 38.90578125 -3.44921875 39.52734375 C-5.89133618 43.66703062 -10.34818273 45.13587514 -14.73046875 46.69921875 C-21.27591418 47.97194425 -26.67346262 46.57927015 -32.4609375 43.3984375 C-37.09874753 39.92606682 -39.91785126 35.13707121 -41.73046875 29.69921875 C-42.53978136 20.8083417 -42.43191226 12.93259218 -36.73046875 5.69921875 C-26.78069203 -3.52586951 -12.04078927 -6.61769363 0 0 Z " fill="#FFFFFFB3" transform="translate(433.73046875,136.30078125)"/>
<path d="M0 0 C3 0.125 3 0.125 4 1.125 C4.81668358 9.53151471 2.21387273 16.14900859 -0.75 23.9375 C-1.6418034 26.33940655 -2.53243932 28.74174692 -3.421875 31.14453125 C-3.85588623 32.30831299 -4.28989746 33.47209473 -4.73706055 34.67114258 C-7.10422365 41.14480514 -9.34763416 47.66784087 -11.1875 54.3125 C-12 57.125 -12 57.125 -13 58.125 C-15.7578125 58.53515625 -15.7578125 58.53515625 -19 58.125 C-20.99323981 56.27234921 -22.33747326 54.74646546 -23.875 52.5625 C-24.29700684 51.99055908 -24.71901367 51.41861816 -25.15380859 50.8293457 C-29.8112801 44.32796355 -33.45838277 37.27748395 -37 30.125 C-39.58426374 34.00139562 -41.45121801 38.10568951 -43.4375 42.3125 C-44.03014648 43.5509668 -44.03014648 43.5509668 -44.63476562 44.81445312 C-47.01691763 49.8443215 -49.12077948 54.88614407 -51 60.125 C-54.25 60.4375 -54.25 60.4375 -58 60.125 C-61.6382215 56.4728122 -63.4166947 52.25446143 -65.1875 47.5 C-65.47431641 46.74235352 -65.76113281 45.98470703 -66.05664062 45.20410156 C-67.05820673 42.51808338 -68.03276412 39.82357466 -69 37.125 C-69.40041504 36.00834961 -69.80083008 34.89169922 -70.21337891 33.74121094 C-71.49624986 30.12598135 -72.75251603 26.50258096 -74 22.875 C-74.41016357 21.70888184 -74.82032715 20.54276367 -75.24291992 19.34130859 C-75.61650635 18.23352051 -75.99009277 17.12573242 -76.375 15.984375 C-76.71273437 14.99920898 -77.05046875 14.01404297 -77.3984375 12.99902344 C-78.09305148 9.68043748 -77.86030549 7.39161694 -77 4.125 C-75 2.125 -75 2.125 -71.375 2 C-69.704375 2.061875 -69.704375 2.061875 -68 2.125 C-65.09766894 10.60083408 -62.34524109 19.11260835 -59.75 27.6875 C-59.49202637 28.53151367 -59.23405273 29.37552734 -58.96826172 30.24511719 C-57.68485727 34.52313203 -56.60431804 38.68614013 -56 43.125 C-55.34 43.125 -54.68 43.125 -54 43.125 C-53.60941406 41.89652344 -53.21882813 40.66804687 -52.81640625 39.40234375 C-50.80730062 33.37974583 -48.38314928 27.54353065 -45.9375 21.6875 C-45.49083984 20.60017578 -45.04417969 19.51285156 -44.58398438 18.39257812 C-44.15279297 17.35681641 -43.72160156 16.32105469 -43.27734375 15.25390625 C-42.88796631 14.31619385 -42.49858887 13.37848145 -42.09741211 12.41235352 C-41 10.125 -41 10.125 -39 8.125 C-35.875 8 -35.875 8 -33 8.125 C-32.4121875 9.7028125 -32.4121875 9.7028125 -31.8125 11.3125 C-31.53535156 12.04210937 -31.25820312 12.77171875 -30.97265625 13.5234375 C-30.27250807 15.396123 -29.59557181 17.27754626 -28.93359375 19.1640625 C-26.15534673 26.84779517 -22.66302575 33.41938084 -18 40.125 C-15.09144615 33.16473878 -12.65135508 26.14621012 -10.4375 18.9375 C-4.67543229 0.19480968 -4.67543229 0.19480968 0 0 Z " fill="#FFFFFFB3" transform="translate(166,594.875)"/>
<path d="M0 0 C3.67872747 3.07811891 5.67329948 5.18823323 6.23828125 10.05078125 C6.42072777 15.61059894 5.77184923 18.64786628 2 23 C0.27328376 24.60113688 -1.48523484 26.12503396 -3.31640625 27.60546875 C-4.98248423 28.98549158 -6.4941712 30.44840133 -8 32 C-7.33871094 32.20882812 -6.67742187 32.41765625 -5.99609375 32.6328125 C-1.90418855 34.50004434 1.39347009 37.13059801 4.9375 39.875 C9.53815367 43.40603391 14.13120995 46.84557264 19 50 C18.625 52.4375 18.625 52.4375 18 55 C14.07092843 56.96453579 10.2538039 56.84964283 6 56 C-2.27796633 51.61815515 -9.37996297 45.16728571 -16.34375 38.96875 C-19.06910938 36.94877775 -20.67757189 36.36162483 -24 36 C-27.85714286 35.14285714 -27.85714286 35.14285714 -29 34 C-29.04092937 31.66702567 -29.04241723 29.33294775 -29 27 C-27.741875 26.62875 -26.48375 26.2575 -25.1875 25.875 C-18.60005624 23.68266531 -10.46218059 20.55556258 -6 15 C-5.84525388 12.43810155 -5.84525388 12.43810155 -7 10 C-11.37897864 6.28450297 -16.7419284 5.76133377 -22.29296875 6.16796875 C-24.20124566 6.40101496 -26.10190229 6.69494858 -28 7 C-27.94779297 7.93392578 -27.94779297 7.93392578 -27.89453125 8.88671875 C-27.65905395 16.92658651 -28.67038159 24.5203895 -30.02075195 32.4362793 C-31.03284723 38.71737898 -31.24476483 44.16197511 -29.25 50.3125 C-29 52 -29 52 -29.9375 53.75 C-33.07559847 55.65187786 -36.42675059 55.73482145 -40 55 C-41.73046875 53.87890625 -41.73046875 53.87890625 -43 52 C-43.94669672 44.35516946 -42.94747309 36.75698684 -41.51171875 29.2421875 C-40.50747042 22.87939272 -40.30998908 16.42819451 -40 10 C-41.98 10 -43.96 10 -46 10 C-46.33 7.69 -46.66 5.38 -47 3 C-45.86648814 2.1907899 -44.71714141 1.40376399 -43.5625 0.625 C-42.92441406 0.18414063 -42.28632813 -0.25671875 -41.62890625 -0.7109375 C-30.32585397 -6.25329597 -10.6903179 -6.99155812 0 0 Z " fill="#FFFFFFB3" transform="translate(336,745)"/>
<path d="M0 0 C3.7930372 0.01831088 7.58582928 0.02050851 11.37890625 0.02026367 C31.6590376 0.04664978 31.6590376 0.04664978 41.69140625 0.5300293 C42.87395996 0.58634521 44.05651367 0.64266113 45.27490234 0.70068359 C48.38664797 1.24399175 49.85991589 2.09663032 52.16796875 4.20581055 C51.91796875 7.08081055 51.91796875 7.08081055 51.16796875 10.20581055 C47.75523204 12.70835514 44.36400178 12.42987895 40.25415039 12.38525391 C39.56553421 12.38072708 38.87691803 12.37620026 38.16743469 12.37153625 C36.67239162 12.36058942 35.17737648 12.34509263 33.68242073 12.32557487 C31.29455087 12.29522761 28.90692918 12.27854345 26.51890564 12.26551819 C19.72863992 12.22597402 12.93866821 12.16187323 6.14868164 12.08935547 C-31.87243413 11.69835781 -64.06587093 14.06881458 -94.41015625 39.1550293 C-95.02947021 39.65993896 -95.64878418 40.16484863 -96.28686523 40.68505859 C-97.49824036 41.67673367 -98.69895536 42.68161939 -99.88696289 43.70117188 C-102.67541613 45.98653072 -104.51694994 47.16394921 -108.125 47.64331055 C-110.83203125 47.20581055 -110.83203125 47.20581055 -112.83203125 45.20581055 C-112.74662008 41.36230786 -112.24330582 39.65111664 -109.61328125 36.8034668 C-93.43862035 21.69651525 -75.10206537 9.60467573 -53.39453125 4.33081055 C-52.61005615 4.13970703 -51.82558105 3.94860352 -51.01733398 3.75170898 C-34.14879548 0.01857726 -17.19575443 -0.08575603 0 0 Z " fill="#FFFFFFB3" transform="translate(422.83203125,231.794189453125)"/>
<path d="M0 0 C5.30452478 2.93955612 7.97055014 6.77879333 10.75 12.0625 C11.678125 13.733125 11.678125 13.733125 12.625 15.4375 C14.77590329 22.36818839 14.72943994 28.67310339 11.8125 35.375 C8.79516084 40.60116479 5.50465877 44.0286617 -0.25 46.0625 C-8.9229937 47.36791967 -16.85168861 47.16709023 -24.2578125 41.91796875 C-28.89650717 37.59761587 -31.94375003 32.42687466 -32.5234375 26.05859375 C-32.75261663 18.02850977 -32.40113561 11.51622162 -27.25 5.0625 C-19.09851629 -1.91836783 -10.11886454 -4.45474975 0 0 Z " fill="#FFFFFFB3" transform="translate(343.25,140.9375)"/>
<path d="M0 0 C4.18724467 3.16427392 6.19367637 6.54500216 7.88671875 11.42578125 C9.35037522 22.0411424 6.18038012 31.13200369 0.01171875 39.73828125 C-6.62660538 47.90071041 -13.74609685 54.60063016 -24.11328125 57.42578125 C-26.8302403 57.66132407 -29.40048976 57.79568202 -32.11328125 57.80078125 C-32.7990625 57.82527344 -33.48484375 57.84976563 -34.19140625 57.875 C-39.33208658 57.90443138 -42.1945932 56.69230808 -46.11328125 53.42578125 C-47.7578125 51.390625 -47.7578125 51.390625 -48.92578125 49.36328125 C-49.52326172 48.35587891 -49.52326172 48.35587891 -50.1328125 47.328125 C-53.67766003 40.45027342 -52.7412722 32.60572381 -50.55078125 25.42578125 C-46.52172708 14.51199242 -39.6033225 4.28561237 -29.67578125 -2.07421875 C-20.76392396 -6.00955375 -8.21906727 -4.9537672 0 0 Z M-28.21484375 11.3515625 C-35.24230334 18.76066316 -40.57987892 27.71694231 -40.4609375 38.1328125 C-39.85300332 42.14244581 -38.12264419 43.75079197 -35.11328125 46.42578125 C-31.85503459 47.96439773 -29.31299758 47.41395589 -25.92578125 46.55078125 C-16.24210326 42.98395986 -9.38754177 34.55787291 -5.11328125 25.42578125 C-3.9007731 21.47195034 -3.44365156 17.52233937 -4.11328125 13.42578125 C-6.61020235 9.07630578 -8.61676265 7.23183869 -13.42578125 5.80078125 C-19.75469534 4.80533946 -23.63316571 7.15311032 -28.21484375 11.3515625 Z " fill="#FFFFFFB3" transform="translate(273.11328125,744.57421875)"/>
<path d="M0 0 C1.12334999 -0.00574036 1.12334999 -0.00574036 2.26939392 -0.01159668 C3.85726258 -0.01431886 5.44517584 -0.00693605 7.03295898 0.00976562 C9.43253319 0.03096455 11.82904117 0.01008807 14.22851562 -0.015625 C24.13012906 -0.03292197 31.66551157 1.03926519 40.27734375 6.28125 C44.4775419 10.72851863 46.61697856 15.33235891 47.02734375 21.46875 C46.68492749 28.45618178 43.11127603 32.82736229 38.3046875 37.625 C32.03359957 43.06901624 24.95399546 46.48077371 17.37988281 49.68896484 C15.39380697 50.53488604 13.42603128 51.4159527 11.45703125 52.30078125 C-2.90165411 58.59361866 -2.90165411 58.59361866 -9.59765625 56.53125 C-12.80460033 53.2401701 -12.99070497 50.71463533 -12.94140625 46.2109375 C-12.77407127 38.52747277 -11.57126797 31.18361799 -10.09765625 23.65625 C-9.85917969 22.38394531 -9.62070312 21.11164062 -9.375 19.80078125 C-8.79376657 16.70861938 -8.20123126 13.61911406 -7.59765625 10.53125 C-8.25765625 10.53125 -8.91765625 10.53125 -9.59765625 10.53125 C-10.92244729 5.23208583 -10.92244729 5.23208583 -9.59204102 2.36132812 C-6.66870065 -0.32117394 -3.77233321 -0.04249772 0 0 Z M4.40234375 11.53125 C1.59430205 22.08948681 -1.02023363 32.544238 -0.59765625 43.53125 C4.93408529 42.23184763 10.2102336 40.65400815 15.52734375 38.65625 C16.20410156 38.41261719 16.88085938 38.16898438 17.578125 37.91796875 C23.84066138 35.58011668 29.04067934 32.78756263 32.83984375 27.09375 C33.61134766 25.98193359 33.61134766 25.98193359 34.3984375 24.84765625 C35.65880824 21.93948564 35.37652297 20.50818345 34.40234375 17.53125 C31.07640264 13.37382361 27.56542839 11.84975798 22.3515625 11.08203125 C16.17548979 10.6308451 10.50912419 10.45358286 4.40234375 11.53125 Z " fill="#FFFFFFB3" transform="translate(588.59765625,742.46875)"/>
<path d="M0 0 C8.26894889 3.05178665 13.93127052 7.64561844 18.36328125 15.31640625 C20.88794841 22.89040772 20.16678843 31.71947223 16.796875 38.9140625 C10.12650268 50.09193438 -1.04861191 57.97901885 -13.63671875 61.31640625 C-21.73263686 62.07484738 -30.00571077 62.63434334 -36.63671875 57.31640625 C-41.31800394 53.02120643 -43.26251325 48.43478541 -44.01171875 42.19140625 C-42.61279858 27.73589784 -34.12567312 15.00254548 -23.63671875 5.31640625 C-20.74699 3.35535788 -17.81249901 1.75994273 -14.63671875 0.31640625 C-10.22066331 -1.89162147 -4.65508104 -1.20687286 0 0 Z M-20.80078125 18.0234375 C-26.19170464 24.75635672 -32.7562188 33.46090397 -32.57421875 42.37890625 C-31.323104 46.29906579 -29.93462486 47.84297667 -26.63671875 50.31640625 C-21.78708289 52.50687294 -17.73363465 52.72953937 -12.69921875 51.00390625 C-4.3285404 47.13751205 4.06588979 39.56360603 8.36328125 31.31640625 C9.70290153 26.85607963 9.74858556 23.49498412 8.30078125 19.06640625 C5.48831856 15.07452372 2.94533926 12.08302821 -1.78125 10.6796875 C-9.76207181 9.41526428 -15.37840964 12.26983504 -20.80078125 18.0234375 Z " fill="#FFFFFFB3" transform="translate(546.63671875,738.68359375)"/>
<path d="M0 0 C5.61515357 2.70730619 9.68096462 7.19250114 12 13 C13.18829734 24.74479929 11.50091405 33.61897296 4.375 43.125 C-3.9030106 52.8719367 -14.75278664 60.85820895 -27.76953125 62.30859375 C-37.00209747 62.69970374 -37.00209747 62.69970374 -41.0625 59.4375 C-45.79160123 54.46617651 -47.15965909 49.9702769 -47.4375 43.25 C-47.02722274 29.53990149 -39.56064509 18.89698293 -29.90234375 9.68359375 C-24.98440272 5.33116545 -20.108135 3.13784725 -14 1 C-9.81634937 -1.09182531 -4.55592381 -0.42935408 0 0 Z M-7 10 C-7.99 11.485 -7.99 11.485 -9 13 C-10.03125 12.938125 -11.0625 12.87625 -12.125 12.8125 C-18.98440083 13.14440649 -23.16109325 17.91921448 -27.6875 22.75 C-32.13432559 28.09435002 -36.1605375 34.1977637 -36.5625 41.3125 C-35.9309833 45.45244284 -35.02401822 47.14878282 -32 50 C-26.953571 51.682143 -22.68116821 49.13505444 -18 47 C-9.2461653 41.98333062 -0.81653144 35.03389326 2 25 C2.27238768 20.14809451 1.64776977 16.32130116 -1.375 12.4375 C-3.76936633 9.65977445 -3.76936633 9.65977445 -7 10 Z " fill="#FFFFFFB3" transform="translate(486,739)"/>
<path d="M0 0 C1.45773105 -0.00669144 2.9154416 -0.02073149 4.37304688 -0.04101562 C6.54916618 -0.07123295 8.72457459 -0.08199218 10.90087891 -0.08789062 C12.15046387 -0.09723633 13.40004883 -0.10658203 14.6875 -0.11621094 C17.75244141 0.24023438 17.75244141 0.24023438 19.65722656 1.51464844 C22.25123251 5.60168234 21.00787759 11.01590234 20.07275391 15.49804688 C19.34562552 18.42733553 18.57766959 21.33719951 17.75244141 24.24023438 C11.98681641 25.35742188 11.98681641 25.35742188 9.87744141 24.30273438 C7.47913554 19.90584028 8.54790255 14.86950168 9.75244141 10.24023438 C8.55611084 10.30082031 7.35978027 10.36140625 6.12719727 10.42382812 C-17.88842065 11.61692975 -41.89099943 12.45931524 -65.93844604 12.53979492 C-68.39462536 12.54842159 -70.85079213 12.56209397 -73.30691528 12.58081055 C-76.75346716 12.60441086 -80.19937883 12.60740234 -83.64599609 12.60351562 C-84.6781575 12.61264481 -85.71031891 12.62177399 -86.77375793 12.63117981 C-87.71821274 12.62503159 -88.66266754 12.61888336 -89.63574219 12.61254883 C-90.45835541 12.61317825 -91.28096863 12.61380768 -92.12850952 12.61445618 C-94.77502021 12.14708522 -95.69105739 11.40893775 -97.24755859 9.24023438 C-97.06005859 6.11523438 -97.06005859 6.11523438 -96.24755859 3.24023438 C-93.8313312 2.03212068 -92.25224224 2.0900398 -89.55200195 2.05078125 C-88.57174545 2.03406372 -87.59148895 2.01734619 -86.58152771 2.00012207 C-85.51096634 1.98654663 -84.44040497 1.97297119 -83.33740234 1.95898438 C-82.2231337 1.94057495 -81.10886505 1.92216553 -79.96083069 1.90319824 C-76.36896176 1.84433179 -72.77703951 1.79177893 -69.18505859 1.74023438 C-64.52744081 1.67105063 -59.86989797 1.59846306 -55.21240234 1.52148438 C-54.0503125 1.50228943 -52.88822266 1.48309448 -51.69091797 1.46331787 C-43.83833226 1.32058077 -35.99642597 1.06116402 -28.14990234 0.72460938 C-18.76532367 0.32223032 -9.39364507 0.02607535 0 0 Z " fill="#FFFFFFB3" transform="translate(752.24755859375,473.759765625)"/>
<path d="M0 0 C0.80687256 -0.00926514 1.61374512 -0.01853027 2.44506836 -0.02807617 C8.06546904 0.00296904 8.06546904 0.00296904 10.3125 2.25 C10.5625 5.25 10.5625 5.25 10.3125 8.25 C7.56525645 10.99724355 5.61540695 10.73406977 1.7734375 11.1015625 C0.47148437 11.23046875 -0.83046875 11.359375 -2.171875 11.4921875 C-3.55206564 11.61998293 -4.93227423 11.74758459 -6.3125 11.875 C-7.70059991 12.00960363 -9.08862219 12.14501046 -10.4765625 12.28125 C-13.87952536 12.61209361 -17.28307243 12.93464649 -20.6875 13.25 C-20.666875 14.28125 -20.64625 15.3125 -20.625 16.375 C-20.68026661 19.80152969 -21.03300715 22.89572414 -21.6875 26.25 C-20.84453369 26.24476318 -20.00156738 26.23952637 -19.13305664 26.23413086 C-16.01522064 26.21712174 -12.89740823 26.20456594 -9.77954102 26.19506836 C-8.42829614 26.19002943 -7.07705674 26.18319823 -5.72583008 26.17456055 C-3.78729566 26.16247581 -1.848722 26.15730172 0.08984375 26.15234375 C1.84155884 26.14448853 1.84155884 26.14448853 3.62866211 26.13647461 C6.3125 26.25 6.3125 26.25 7.3125 27.25 C7.625 30.125 7.625 30.125 7.3125 33.25 C4.14648741 36.48874531 1.42507558 36.65772227 -2.984375 36.76171875 C-4.18964844 36.79716797 -5.39492188 36.83261719 -6.63671875 36.86914062 C-8.51810547 36.90297852 -8.51810547 36.90297852 -10.4375 36.9375 C-11.70722656 36.97166016 -12.97695313 37.00582031 -14.28515625 37.04101562 C-17.41918274 37.12349001 -20.55292955 37.19264484 -23.6875 37.25 C-23.74284912 37.88091553 -23.79819824 38.51183105 -23.85522461 39.16186523 C-24.1071812 42.0041768 -24.36599769 44.84582219 -24.625 47.6875 C-24.75551758 49.17733398 -24.75551758 49.17733398 -24.88867188 50.69726562 C-24.97568359 51.64150391 -25.06269531 52.58574219 -25.15234375 53.55859375 C-25.230896 54.43314209 -25.30944824 55.30769043 -25.39038086 56.20874023 C-25.6875 58.25 -25.6875 58.25 -26.6875 59.25 C-32.42361111 59.52314815 -32.42361111 59.52314815 -34.6875 59.25 C-37.34686596 56.59063404 -37.01713098 55.3543331 -37.0625 51.625 C-36.97816365 43.50340996 -35.58372017 35.66392725 -34.11083984 27.69091797 C-33.15536717 22.46432079 -32.33639533 17.56777285 -32.6875 12.25 C-33.0175 11.92 -33.3475 11.59 -33.6875 11.25 C-33.95043056 7.21839809 -33.98154844 5.69107266 -31.6875 2.25 C-29.83422852 1.72583008 -29.83422852 1.72583008 -27.56640625 1.51953125 C-26.72182861 1.43864258 -25.87725098 1.35775391 -25.00708008 1.27441406 C-24.09724365 1.20448242 -23.18740723 1.13455078 -22.25 1.0625 C-21.32018311 0.98354492 -20.39036621 0.90458984 -19.43237305 0.82324219 C-12.95799848 0.31708074 -6.49356725 0.04723281 0 0 Z " fill="#FFFFFFB3" transform="translate(427.6875,740.75)"/>
<path d="M0 0 C1.21030884 -0.01377686 1.21030884 -0.01377686 2.44506836 -0.02783203 C8.06510247 0.00260247 8.06510247 0.00260247 10.3125 2.25 C10.0625 5.8125 10.0625 5.8125 9.3125 9.25 C6.62808089 10.59220956 4.19787817 10.68287992 1.2109375 11.00390625 C-0.60664063 11.20209961 -0.60664063 11.20209961 -2.4609375 11.40429688 C-4.36746094 11.60635742 -4.36746094 11.60635742 -6.3125 11.8125 C-8.230625 12.02036133 -8.230625 12.02036133 -10.1875 12.23242188 C-13.35379749 12.57504362 -16.5206034 12.9129608 -19.6875 13.25 C-20.6775 17.87 -21.6675 22.49 -22.6875 27.25 C-19.2225 26.755 -19.2225 26.755 -15.6875 26.25 C-13.86859271 26.16589418 -12.04741176 26.11952492 -10.2265625 26.1171875 C-9.26105469 26.11589844 -8.29554688 26.11460937 -7.30078125 26.11328125 C-5.82158203 26.11908203 -5.82158203 26.11908203 -4.3125 26.125 C-2.79849609 26.11919922 -2.79849609 26.11919922 -1.25390625 26.11328125 C0.18275391 26.11521484 0.18275391 26.11521484 1.6484375 26.1171875 C2.52032715 26.11831543 3.3922168 26.11944336 4.29052734 26.12060547 C6.3125 26.25 6.3125 26.25 7.3125 27.25 C7.625 30.125 7.625 30.125 7.3125 33.25 C4.17026635 36.43799891 1.37609443 36.71308147 -2.984375 36.98046875 C-4.18964844 37.06103516 -5.39492187 37.14160156 -6.63671875 37.22460938 C-7.89097656 37.29486328 -9.14523438 37.36511719 -10.4375 37.4375 C-12.34208984 37.5602832 -12.34208984 37.5602832 -14.28515625 37.68554688 C-17.41871987 37.88581222 -20.55252404 38.07347537 -23.6875 38.25 C-23.7376123 38.81509277 -23.78772461 39.38018555 -23.83935547 39.96240234 C-24.07116272 42.51753853 -24.3166579 45.07117762 -24.5625 47.625 C-24.68044922 48.95917969 -24.68044922 48.95917969 -24.80078125 50.3203125 C-24.88457031 51.17109375 -24.96835938 52.021875 -25.0546875 52.8984375 C-25.12800293 53.68395996 -25.20131836 54.46948242 -25.27685547 55.27880859 C-25.6875 57.25 -25.6875 57.25 -27.6875 59.25 C-30.40204956 59.57752234 -32.93980759 59.3808425 -35.6875 59.25 C-37.90757491 57.02992509 -36.9916129 52.63934366 -37.01977539 49.65307617 C-36.92337191 41.73348737 -35.42587513 34.07226593 -34.04467773 26.29467773 C-32.8669618 19.35758526 -32.4145598 13.39232685 -33.5234375 6.41015625 C-33.57757813 5.69730469 -33.63171875 4.98445312 -33.6875 4.25 C-31.37058819 1.93308819 -30.71851354 1.92598475 -27.56640625 1.6171875 C-26.72182861 1.53307617 -25.87725098 1.44896484 -25.00708008 1.36230469 C-24.09724365 1.28399414 -23.18740723 1.20568359 -22.25 1.125 C-20.85527466 0.9997998 -20.85527466 0.9997998 -19.43237305 0.87207031 C-12.95554414 0.33502891 -6.49864336 0.04159737 0 0 Z " fill="#FFFFFFB3" transform="translate(210.6875,740.75)"/>
<path d="M0 0 C2.01511656 0.0564986 4.02376514 0.2734739 6.02734375 0.49609375 C11.35182393 8.48281402 5.22854557 24.62390947 3.46484375 33.68359375 C3.13167259 35.41592167 2.79898643 37.14834295 2.46679688 38.88085938 C1.65923203 43.08703437 0.84511934 47.29189256 0.02734375 51.49609375 C0.5805278 51.3317131 1.13371185 51.16733246 1.70365906 50.99797058 C13.12747068 47.61791298 23.07365639 45.75414074 35.02734375 46.49609375 C36.34869589 52.86260859 36.34869589 52.86260859 35.07421875 55.375 C31.96392326 57.07853971 28.74759071 57.17289265 25.27734375 57.43359375 C19.31360423 57.98833056 13.84556415 58.94894256 8.08984375 60.62109375 C2.51787483 62.20545552 -3.18215833 63.78158429 -8.97265625 62.49609375 C-10.73828125 61.46875 -10.73828125 61.46875 -11.97265625 59.49609375 C-12.22086045 53.81904997 -11.66619663 48.5557075 -10.6953125 42.97265625 C-10.5645079 42.1864389 -10.43370331 41.40022156 -10.29893494 40.59017944 C-9.88375651 38.09941773 -9.46008582 35.6102088 -9.03515625 33.12109375 C-8.480194 29.84313803 -7.93004854 26.56441003 -7.3828125 23.28515625 C-7.18505722 22.11512054 -7.18505722 22.11512054 -6.98330688 20.92144775 C-6.18299902 16.09448777 -5.58502351 11.3139962 -5.37670898 6.41943359 C-4.70895356 3.2408371 -3.21671811 0.80895683 0 0 Z " fill="#FFFFFFB3" transform="translate(262.97265625,594.50390625)"/>
<path d="M0 0 C2 2 2 2 2.25 5.640625 C2.09116714 12.72570492 0.97093416 19.74005085 0 26.75 C-0.28778339 28.84898385 -0.57378414 30.94816689 -0.85595703 33.0479126 C-1.11092682 34.94231267 -1.37170062 36.83592893 -1.6328125 38.72949219 C-1.94699992 41.52793279 -2.0744254 44.18911202 -2 47 C-1.41621582 46.93941406 -0.83243164 46.87882813 -0.23095703 46.81640625 C2.47052194 46.53905796 5.17272713 46.26949891 7.875 46 C8.7928125 45.90460937 9.710625 45.80921875 10.65625 45.7109375 C23.87835019 44.40735016 23.87835019 44.40735016 29 45 C31 47 31 47 31.4375 49.875 C31 53 31 53 29.25 55.375 C25.09784756 57.45107622 22.05703175 57.17658872 17.48046875 57.01171875 C10.39382351 56.98785799 2.7177825 57.76073917 -4 60 C-5.68358775 60.1418907 -7.37320743 60.22014505 -9.0625 60.25 C-9.94035156 60.27578125 -10.81820312 60.3015625 -11.72265625 60.328125 C-12.47417969 60.21984375 -13.22570312 60.1115625 -14 60 C-16.28725606 56.56911591 -16.16006266 55.88664012 -15.69287109 51.9609375 C-15.52812286 50.48898926 -15.52812286 50.48898926 -15.36004639 48.98730469 C-15.24123108 48.00149414 -15.12241577 47.01568359 -15 46 C-14.82272511 44.28409099 -14.64767288 42.56795054 -14.47509766 40.8515625 C-13.98308433 36.2204617 -13.4712298 31.59162755 -12.953125 26.96337891 C-12.73285092 24.97402866 -12.51775045 22.9840993 -12.30761719 20.99365234 C-12.00135823 18.09841482 -11.67828505 15.20549057 -11.3515625 12.3125 C-11.26081451 11.42191895 -11.17006653 10.53133789 -11.0765686 9.61376953 C-10.93159439 8.37602783 -10.93159439 8.37602783 -10.78369141 7.11328125 C-10.70454498 6.38923096 -10.62539856 5.66518066 -10.54385376 4.91918945 C-8.97781047 -0.60717441 -5.11511628 -0.46501057 0 0 Z " fill="#FFFFFFB3" transform="translate(214,593)"/>
<path d="M0 0 C1.423125 0.4021875 1.423125 0.4021875 2.875 0.8125 C4.36680064 3.79610127 4.09319376 6.88050657 4.15625 10.15625 C4.18386414 11.24359436 4.18386414 11.24359436 4.21203613 12.35290527 C4.29077698 15.45924003 4.35846835 18.56579456 4.42724609 21.67236328 C4.4789628 23.9379348 4.53621727 26.20331994 4.59375 28.46875 C4.60732544 29.17398804 4.62090088 29.87922607 4.6348877 30.60583496 C4.68114597 34.33415531 4.68114597 34.33415531 5.875 37.8125 C7.48588598 49.47672548 8.09473812 61.16905523 8.1875 72.9375 C8.20498291 74.06929687 8.22246582 75.20109375 8.24047852 76.3671875 C8.23939087 77.95273437 8.23939087 77.95273437 8.23828125 79.5703125 C8.24126221 80.5102002 8.24424316 81.45008789 8.24731445 82.41845703 C7.80726656 85.24803715 7.14902131 86.12482718 4.875 87.8125 C2.5 88.359375 2.5 88.359375 -0.125 88.5625 C-1.424375 88.67851563 -1.424375 88.67851563 -2.75 88.796875 C-5.125 88.8125 -5.125 88.8125 -8.125 87.8125 C-10.45506911 87.45706573 -12.78827016 87.1211247 -15.125 86.8125 C-16.34580679 81.44095011 -16.34580679 81.44095011 -15.3125 78.5 C-14.125 76.8125 -14.125 76.8125 -12.125 75.8125 C-10.58831135 75.58782169 -9.04531946 75.40453195 -7.5 75.25 C-6.68273437 75.16621094 -5.86546875 75.08242188 -5.0234375 74.99609375 C-4.39695312 74.93550781 -3.77046875 74.87492188 -3.125 74.8125 C-2.88153578 67.15690286 -3.21552218 59.72948738 -4.0625 52.125 C-4.14935059 51.33496582 -4.23620117 50.54493164 -4.32568359 49.73095703 C-4.74947044 45.64321789 -4.74947044 45.64321789 -6.125 41.8125 C-6.24851073 38.93077009 -6.31342353 36.07416645 -6.328125 33.19140625 C-6.33382507 32.33570541 -6.33952515 31.48000458 -6.34539795 30.59837341 C-6.35485099 28.78686766 -6.36138314 26.97534468 -6.36523438 25.16381836 C-6.3749492 22.38950734 -6.40597291 19.61593422 -6.4375 16.84179688 C-6.44402909 15.08333774 -6.44927993 13.3248733 -6.453125 11.56640625 C-6.4654718 10.73508682 -6.4778186 9.9037674 -6.49053955 9.04725647 C-6.46812804 3.26625175 -6.46812804 3.26625175 -4.79803467 1.057724 C-3.125 -0.1875 -3.125 -0.1875 0 0 Z " fill="#FFFFFFB3" transform="translate(769.125,795.1875)"/>
<path d="M0 0 C1.23155319 0.00045822 2.46310638 0.00091644 3.73197937 0.00138855 C6.33166469 0.00440281 8.93134834 0.01226432 11.53100586 0.0246582 C15.48753341 0.0428575 19.44382565 0.04516804 23.40039062 0.04492188 C25.93359575 0.04984006 28.46679931 0.05566968 31 0.0625 C32.17323318 0.06361282 33.34646637 0.06472565 34.55525208 0.06587219 C52.06995016 0.16583445 52.06995016 0.16583445 56.19921875 2.23046875 C57.53855168 2.34578383 58.88266929 2.40882883 60.2265625 2.44140625 C61.41475586 2.48394531 61.41475586 2.48394531 62.62695312 2.52734375 C64.29600247 2.57929859 65.96530785 2.62360831 67.63476562 2.66015625 C68.82489258 2.7065625 68.82489258 2.7065625 70.0390625 2.75390625 C70.76472412 2.77372559 71.49038574 2.79354492 72.23803711 2.81396484 C74.75131565 3.34771975 75.68478868 4.17691242 77.19921875 6.23046875 C77.01171875 9.35546875 77.01171875 9.35546875 76.19921875 12.23046875 C72.31083607 14.17466009 67.4748159 13.41530649 63.19921875 13.41796875 C61.69294922 13.43633789 61.69294922 13.43633789 60.15625 13.45507812 C59.15980469 13.45701172 58.16335937 13.45894531 57.13671875 13.4609375 C55.78900391 13.46710083 55.78900391 13.46710083 54.4140625 13.47338867 C51.68280725 13.26700965 49.34316246 12.83187461 46.68920898 12.22167969 C40.2647358 10.87950986 33.95866289 11.03571065 27.421875 11.140625 C25.45384961 11.15581697 23.4858239 11.17099206 21.51779079 11.18514919 C16.70626853 11.22324545 11.89499998 11.2846426 7.08374023 11.34692383 C4.36601102 11.38133456 1.64841263 11.40773768 -1.06947327 11.42588806 C-3.62041135 11.44377837 -6.17129804 11.47443641 -8.72190857 11.51905823 C-9.87062943 11.5257402 -11.01935028 11.53242218 -12.20288086 11.53930664 C-13.21418564 11.55200089 -14.22549042 11.56469513 -15.2674408 11.57777405 C-17.80078125 11.23046875 -17.80078125 11.23046875 -19.67018127 9.91038513 C-20.80078125 8.23046875 -20.80078125 8.23046875 -20.48828125 5.04296875 C-20.26140625 4.11484375 -20.03453125 3.18671875 -19.80078125 2.23046875 C-13.22643408 -0.1694444 -6.94258738 -0.04230122 0 0 Z " fill="#FFFFFFB3" transform="translate(82.80078125,866.76953125)"/>
<path d="M0 0 C0.73913321 -0.00282738 1.47826641 -0.00565475 2.23979759 -0.00856781 C6.14009322 -0.02347192 10.04035259 -0.03276068 13.94067383 -0.03710938 C17.96693671 -0.04262662 21.99286697 -0.06674701 26.01902485 -0.09508133 C29.12193294 -0.11367541 32.22475963 -0.11891124 35.32771873 -0.12044525 C36.81290726 -0.12347224 38.29809433 -0.13150239 39.78322792 -0.14463043 C41.85355144 -0.16164764 43.92304353 -0.15982369 45.9934082 -0.15332031 C47.17062943 -0.15696594 48.34785065 -0.16061157 49.56074524 -0.16436768 C52.44921875 0.203125 52.44921875 0.203125 54.36442566 1.53009033 C55.44921875 3.203125 55.44921875 3.203125 55.26171875 6.328125 C54.99359375 7.276875 54.72546875 8.225625 54.44921875 9.203125 C51.58232971 10.63656952 49.09245797 10.36766559 45.88818359 10.40844727 C45.21489517 10.41834686 44.54160675 10.42824646 43.84791565 10.43844604 C41.61869849 10.47007615 39.38946001 10.49482434 37.16015625 10.51953125 C35.61601197 10.54009948 34.07187334 10.56109592 32.52774048 10.58250427 C28.46057708 10.63773849 24.39336276 10.68714178 20.32611084 10.73535156 C16.17699646 10.78555675 12.02795616 10.84124793 7.87890625 10.89648438 C-0.2642603 11.00408246 -8.40748877 11.10552374 -16.55078125 11.203125 C-16.51597656 11.81800781 -16.48117188 12.43289063 -16.4453125 13.06640625 C-16.41824219 13.87464844 -16.39117187 14.68289063 -16.36328125 15.515625 C-16.32847656 16.31613281 -16.29367188 17.11664063 -16.2578125 17.94140625 C-16.55078125 20.203125 -16.55078125 20.203125 -17.8671875 22.0078125 C-19.55078125 23.203125 -19.55078125 23.203125 -22.67578125 23.015625 C-23.62453125 22.7475 -24.57328125 22.479375 -25.55078125 22.203125 C-27.12333171 19.05802407 -26.77650793 15.71547055 -26.80078125 12.265625 C-26.82140625 11.53666016 -26.84203125 10.80769531 -26.86328125 10.05664062 C-26.88423526 7.1990371 -26.87733523 4.82734549 -25.53515625 2.26171875 C-18.37249401 -1.55930776 -7.94205761 0.02054316 0 0 Z " fill="#FFFFFFB3" transform="translate(74.55078125,476.796875)"/>
<path d="M0 0 C1.423125 0.4021875 1.423125 0.4021875 2.875 0.8125 C4.06195418 3.18640836 3.99575833 4.61494951 3.98852539 7.26220703 C3.98844986 8.18301056 3.98837433 9.10381409 3.98829651 10.05252075 C3.98313522 11.04839203 3.97797394 12.04426331 3.97265625 13.0703125 C3.9712413 14.08850067 3.96982635 15.10668884 3.96836853 16.1557312 C3.962759 19.41635035 3.95020488 22.67690151 3.9375 25.9375 C3.93248623 28.14453026 3.92792311 30.35156159 3.92382812 32.55859375 C3.91278648 37.97658581 3.89603905 43.39453805 3.875 48.8125 C4.82503906 48.626875 5.77507813 48.44125 6.75390625 48.25 C9.875 47.8125 9.875 47.8125 11.8125 48.8125 C13.54239812 52.06877881 12.7523627 54.30304919 11.875 57.8125 C10.41185371 61.39468576 8.90116169 64.19140214 5.5 66.25 C2.46575305 66.90019578 -0.03258772 67.14863177 -3.125 66.8125 C-4.78042603 65.66125488 -4.78042603 65.66125488 -6.125 63.8125 C-6.50595093 61.15612793 -6.50595093 61.15612793 -6.51318359 57.91992188 C-6.52264008 56.70856567 -6.53209656 55.49720947 -6.5418396 54.24914551 C-6.53576691 52.93973999 -6.52969421 51.63033447 -6.5234375 50.28125 C-6.52545851 48.92508793 -6.52837018 47.56892691 -6.53213501 46.21276855 C-6.53655716 43.37139533 -6.53013123 40.53030515 -6.51611328 37.68896484 C-6.49902097 34.04697897 -6.5088628 30.4056563 -6.52683067 26.76369476 C-6.53767175 23.96355188 -6.53422079 21.1635662 -6.5264473 18.36341858 C-6.52347298 16.3675595 -6.5325834 14.37169432 -6.5418396 12.37585449 C-6.53238312 11.16449829 -6.52292664 9.95314209 -6.51318359 8.70507812 C-6.51079681 7.63713013 -6.50841003 6.56918213 -6.50595093 5.46887207 C-6.125 2.8125 -6.125 2.8125 -4.79605103 0.93249512 C-3.125 -0.1875 -3.125 -0.1875 0 0 Z " fill="#FFFFFFB3" transform="translate(53.125,807.1875)"/>
<path d="M0 0 C1.87709656 0.04587753 1.87709656 0.04587753 3.79211426 0.09268188 C5.15896328 0.14224627 6.52578429 0.19258858 7.89257812 0.24365234 C9.29355087 0.28652635 10.69455285 0.32845454 12.09558105 0.36947632 C15.03143344 0.45897412 17.96664264 0.5595501 20.90185547 0.66796875 C24.66423841 0.80610691 28.42684296 0.917384 32.19033051 1.02045631 C35.08345797 1.10254464 37.97599509 1.1985387 40.86854553 1.29877853 C42.25589045 1.34523794 43.64338474 1.3874389 45.0309906 1.42531204 C46.97033027 1.4803982 48.9090503 1.55613257 50.84765625 1.6328125 C51.95113403 1.67072906 53.05461182 1.70864563 54.19152832 1.74771118 C56.92382812 2.20458984 56.92382812 2.20458984 58.81530762 3.54501343 C59.92382812 5.20458984 59.92382812 5.20458984 59.73632812 8.32958984 C59.46820312 9.27833984 59.20007813 10.22708984 58.92382812 11.20458984 C56.47847158 12.42726812 54.90004762 12.33387846 52.16601562 12.33740234 C51.1628833 12.33949707 50.15975098 12.3415918 49.1262207 12.34375 C48.02818115 12.33907715 46.9301416 12.3344043 45.79882812 12.32958984 C44.09666138 12.32451416 44.09666138 12.32451416 42.36010742 12.31933594 C33.52303926 12.26807892 24.6883306 12.12102518 15.85430908 11.88519287 C14.45183363 11.8483739 13.04928153 11.81435871 11.64666748 11.78326416 C9.66199536 11.73772596 7.67765435 11.67840682 5.69335938 11.61865234 C4.55487549 11.58723145 3.4163916 11.55581055 2.2434082 11.5234375 C-1.4450259 11.16916119 -4.55107382 10.32060518 -8.07617188 9.20458984 C-8.76367188 6.39208984 -8.76367188 6.39208984 -9.07617188 3.20458984 C-6.69767462 -0.43958606 -4.09855183 -0.12310019 0 0 Z " fill="#FFFFFFB3" transform="translate(684.076171875,868.79541015625)"/>
<path d="M0 0 C0.721875 0.00257813 1.44375 0.00515625 2.1875 0.0078125 C2.909375 0.00523437 3.63125 0.00265625 4.375 0 C6.1875 0.1328125 6.1875 0.1328125 7.1875 1.1328125 C8.01931348 8.65112661 6.63013132 15.91462294 5.32519531 23.28076172 C4.03120879 31.05229252 3.74036454 38.78493846 3.65454102 46.65527344 C3.63447998 47.58629883 3.61441895 48.51732422 3.59375 49.4765625 C3.58311523 50.71696289 3.58311523 50.71696289 3.57226562 51.98242188 C3.09289825 54.66152582 2.38726735 55.55795042 0.1875 57.1328125 C-3.5 57.3203125 -3.5 57.3203125 -6.8125 57.1328125 C-14.29737829 45.15700723 -7.15918949 20.93487994 -4.8125 8.1328125 C-2.98413833 0.21866531 -2.98413833 0.21866531 0 0 Z " fill="#FFFFFFB3" transform="translate(182.8125,595.8671875)"/>
<path d="M0 0 C1.423125 0.4021875 1.423125 0.4021875 2.875 0.8125 C4.33809822 3.73869643 4.00488338 6.32819556 4.0078125 9.59375 C4.00922241 10.27526123 4.01063232 10.95677246 4.01208496 11.65893555 C4.0142241 13.87684283 4.0079253 16.09460716 4 18.3125 C3.9984491 19.06281494 3.99689819 19.81312988 3.99530029 20.58618164 C3.91896723 51.85421798 3.91896723 51.85421798 0.875 62.8125 C-1.9375 63.5 -1.9375 63.5 -5.125 63.8125 C-6.81738281 62.66723633 -6.81738281 62.66723633 -8.125 60.8125 C-8.38964844 58.37768555 -8.38964844 58.37768555 -8.234375 55.44921875 C-8.18490723 54.34827881 -8.13543945 53.24733887 -8.08447266 52.11303711 C-8.01534668 50.92073486 -7.9462207 49.72843262 -7.875 48.5 C-7.75121516 45.97402602 -7.62887139 43.44798109 -7.5078125 40.921875 C-7.45764481 39.93899757 -7.45764481 39.93899757 -7.40646362 38.93626404 C-7.16410397 34.08822723 -7.02526736 29.24359365 -6.9296875 24.390625 C-6.89902647 23.016026 -6.86810514 21.64143278 -6.83691406 20.2668457 C-6.77694319 17.61937165 -6.73188976 14.97299012 -6.69433594 12.32495117 C-6.6637207 11.12330322 -6.63310547 9.92165527 -6.6015625 8.68359375 C-6.58174316 7.62068115 -6.56192383 6.55776855 -6.54150391 5.46264648 C-6.125 2.8125 -6.125 2.8125 -4.79052734 0.93383789 C-3.125 -0.1875 -3.125 -0.1875 0 0 Z " fill="#FFFFFFB3" transform="translate(770.125,683.1875)"/>
<path d="M0 0 C0.85464844 0.00386719 1.70929688 0.00773437 2.58984375 0.01171875 C5.20675482 0.33004758 6.75419617 1.08777864 9.0625 2.3125 C10.63408878 2.73401885 12.21879082 3.1093834 13.8125 3.4375 C14.61171875 3.60507813 15.4109375 3.77265625 16.234375 3.9453125 C16.83765625 4.06648438 17.4409375 4.18765625 18.0625 4.3125 C18.0625 4.9725 18.0625 5.6325 18.0625 6.3125 C18.76375 6.415625 19.465 6.51875 20.1875 6.625 C23.45387647 7.40609003 26.1096852 8.73308743 29.0625 10.3125 C29.0625 10.9725 29.0625 11.6325 29.0625 12.3125 C29.7225 12.3125 30.3825 12.3125 31.0625 12.3125 C31.0625 12.9725 31.0625 13.6325 31.0625 14.3125 C31.7225 14.3125 32.3825 14.3125 33.0625 14.3125 C40.72583618 21.82468557 40.72583618 21.82468557 41.36328125 26.53515625 C41.0625 28.4375 41.0625 28.4375 40.0625 31.3125 C37.375 32.0625 37.375 32.0625 34.0625 32.3125 C31.1875 30.5 31.1875 30.5 29.0625 28.3125 C29.0625 27.6525 29.0625 26.9925 29.0625 26.3125 C28.134375 26.2196875 28.134375 26.2196875 27.1875 26.125 C25.0625 25.3125 25.0625 25.3125 23.8125 22.75 C23.565 21.945625 23.3175 21.14125 23.0625 20.3125 C22.4025 20.3125 21.7425 20.3125 21.0625 20.3125 C20.68351562 19.88066406 20.30453125 19.44882813 19.9140625 19.00390625 C17.16873893 16.49604738 13.88173367 15.4905883 10.4375 14.25 C9.36532227 13.85530518 9.36532227 13.85530518 8.27148438 13.45263672 C3.25687038 11.64432963 -1.68196956 10.25098758 -6.9375 9.3125 C-7.625 6.5 -7.625 6.5 -7.9375 3.3125 C-5.70859991 0.11774321 -3.76354161 -0.07357299 0 0 Z " fill="#FFFFFFB3" transform="translate(419.9375,80.6875)"/>
<path d="M0 0 C0 0.66 0 1.32 0 2 C0.66 2 1.32 2 2 2 C2 2.66 2 3.32 2 4 C2.72703125 4.28617188 3.4540625 4.57234375 4.203125 4.8671875 C5.93548957 5.56884354 7.65726127 6.29816157 9.359375 7.0703125 C15.2244131 9.65782931 19.60065622 10.41286089 26 10 C26.28875 9.360625 26.5775 8.72125 26.875 8.0625 C28 6 28 6 30 5 C35.23298969 4.55463918 35.23298969 4.55463918 37.9375 6.125 C39.56696109 9.00051957 38.82474825 10.87299242 38 14 C34.36301186 18.38055016 29.93803066 20.69082809 24.3515625 21.58203125 C12.16732749 21.91567663 3.78816877 18.38121777 -5.82421875 11.09375 C-7.94676855 9.05122452 -8.82578022 8.03620039 -9.375 5.1875 C-9 2 -9 2 -7.9375 0 C-5.08594286 -1.47177143 -3.03295907 -0.74138999 0 0 Z " fill="#FFFFFFB3" transform="translate(395,182)"/>
<path d="M0 0 C2 1.125 2 1.125 3 3 C3.3125 5.875 3.3125 5.875 2 9 C-2.39435543 12.02854226 -7.20343945 13.78348336 -12.3125 15.1875 C-15.13216441 16.14054657 -15.84949808 16.73748659 -17.359375 19.37109375 C-18.14919437 21.17895952 -18.93450315 22.98880393 -19.71484375 24.80078125 C-21 27 -21 27 -24.625 28.3125 C-28 28 -28 28 -29.71875 26.75390625 C-31.79815932 23.90739777 -31.01505352 21.56843745 -30.51953125 18.23046875 C-29.85430422 15.37449404 -28.84018689 13.28183175 -27 11 C-26.34 11 -25.68 11 -25 11 C-25 10.34 -25 9.68 -25 9 C-6.13846154 -0.43076923 -6.13846154 -0.43076923 0 0 Z " fill="#FFFFFFB3" transform="translate(327,99)"/>
<path d="M0 0 C2.64 0 5.28 0 8 0 C8.24234375 0.68707031 8.4846875 1.37414062 8.734375 2.08203125 C9.06953125 2.98308594 9.4046875 3.88414062 9.75 4.8125 C10.07484375 5.70582031 10.3996875 6.59914062 10.734375 7.51953125 C12.16902213 10.33126251 13.26135701 11.45982284 16 13 C18.34180025 13.53578527 18.34180025 13.53578527 20.8125 13.625 C22.11767578 13.71974609 22.11767578 13.71974609 23.44921875 13.81640625 C24.71185547 13.90728516 24.71185547 13.90728516 26 14 C28.34109322 14.29419048 30.66713603 14.64499896 33 15 C33.92177046 18.37982503 34.41401228 20.21337667 32.75 23.375 C27.64714148 26.39032549 21.97110588 25.55977357 16.3046875 24.4921875 C10.31141195 22.8976463 4.19471185 20.72317189 0.90625 15.14453125 C-0.93034423 10.74860895 -1.38250916 6.78136451 -1 2 C-0.67 1.34 -0.34 0.68 0 0 Z " fill="#FFFFFFB3" transform="translate(303,177)"/>
</svg>
